<svg width="160" height="24" viewBox="0 0 160 24" fill="none" xmlns="http://www.w3.org/2000/svg">
    <g clip-path="url(#clip0_3062_83924)">
        <path d="M31.0857 24H2.91429C1.30171 24 0 22.7136 0 21.12V2.88C0 1.2864 1.30171 0 2.91429 0H31.0857C32.6983 0 34 1.2864 34 2.88V21.12C34 22.7136 32.6983 24 31.0857 24Z" fill="#F8F8F8"/>
        <path d="M31.0857 0.96C32.1543 0.96 33.0286 1.824 33.0286 2.88V21.12C33.0286 22.176 32.1543 23.04 31.0857 23.04H2.91429C1.84571 23.04 0.971429 22.176 0.971429 21.12V2.88C0.971429 1.824 1.84571 0.96 2.91429 0.96H31.0857ZM31.0857 0H2.91429C1.30171 0 0 1.2864 0 2.88V21.12C0 22.7136 1.30171 24 2.91429 24H31.0857C32.6983 24 34 22.7136 34 21.12V2.88C34 1.2864 32.6983 0 31.0857 0Z" fill="#E7E7E7"/>
        <path d="M14.1025 7.88164L12.3361 16.08H14.4673L16.2337 7.88164H14.1025ZM27.8305 7.88164H26.0161C25.6129 7.88164 25.2577 8.12164 25.1137 8.47684L21.9073 16.08H24.1441L24.5857 14.8512H27.3217L27.5809 16.08H29.5585L27.8305 7.88164ZM25.2097 13.1712L26.3233 10.0992L26.9665 13.1712H25.2097ZM10.9441 7.88164L8.72653 13.4592L7.82413 8.71684C7.70893 8.17924 7.30573 7.87204 6.83533 7.87204H3.22573L3.17773 8.11204C3.92653 8.27524 4.76173 8.53444 5.28013 8.80324C5.58733 8.98564 5.68333 9.12964 5.77933 9.53284L7.47853 16.0896H9.72494L13.1905 7.89124H10.9441V7.88164ZM19.0369 10.1664C19.0369 9.87844 19.3249 9.55204 19.9393 9.48484C20.2465 9.45604 21.0913 9.41764 22.0417 9.85924L22.4161 8.11204C21.8977 7.92964 21.2353 7.75684 20.4289 7.75684C18.3265 7.75684 16.8385 8.87044 16.8193 10.4736C16.8001 11.6544 17.8849 12.3168 18.6817 12.7104C19.5073 13.1136 19.7953 13.3728 19.7857 13.728C19.7857 14.2752 19.1233 14.5248 18.5089 14.5344C17.4433 14.5536 16.8097 14.2464 16.3201 14.016L15.9361 15.8112C16.4353 16.0416 17.3569 16.2336 18.3169 16.2528C20.5633 16.2528 22.0225 15.1488 22.0417 13.4496C22.0225 11.2512 19.0177 11.1168 19.0369 10.1664Z" fill="#0F2496"/>
    </g>
    <g clip-path="url(#clip1_3062_83924)">
        <path d="M73.0857 24H44.9143C43.3017 24 42 22.7136 42 21.12V2.88C42 1.2864 43.3017 0 44.9143 0H73.0857C74.6983 0 76 1.2864 76 2.88V21.12C76 22.7136 74.6983 24 73.0857 24Z" fill="#F8F8F8"/>
        <path d="M73.0857 0.96C74.1543 0.96 75.0286 1.824 75.0286 2.88V21.12C75.0286 22.176 74.1543 23.04 73.0857 23.04H44.9143C43.8457 23.04 42.9714 22.176 42.9714 21.12V2.88C42.9714 1.824 43.8457 0.96 44.9143 0.96H73.0857ZM73.0857 0H44.9143C43.3017 0 42 1.2864 42 2.88V21.12C42 22.7136 43.3017 24 44.9143 24H73.0857C74.6983 24 76 22.7136 76 21.12V2.88C76 1.2864 74.6983 0 73.0857 0Z" fill="#E7E7E7"/>
        <path d="M68.7861 12.0049C68.7861 15.3201 66.0962 18.0049 62.7861 18.0049C59.476 18.0049 56.7861 15.3202 56.7861 12.0049C56.7861 8.68959 59.4763 6.00488 62.786 6.00488C66.0957 6.00488 68.7861 8.68959 68.7861 12.0049Z" fill="#F79F1A"/>
        <path d="M61.4004 12.0049C61.4004 15.3201 58.7103 18.0049 55.4004 18.0049C52.0905 18.0049 49.4004 15.3202 49.4004 12.0049C49.4004 8.68966 52.0903 6.00488 55.4004 6.00488C58.7105 6.00488 61.4004 8.68956 61.4004 12.0048V12.0049Z" fill="#EA001B"/>
        <path d="M59.0719 7.27637C57.6718 8.37298 56.7852 10.0764 56.7852 12.0015C56.7852 13.9266 57.6835 15.6297 59.0719 16.7264C60.4718 15.6297 61.3586 13.9264 61.3586 12.0013C61.3586 10.0762 60.4718 8.37298 59.0719 7.27637Z" fill="#FF5F01"/>
    </g>
    <g clip-path="url(#clip2_3062_83924)">
        <path d="M115.086 24H86.9143C85.3017 24 84 22.7136 84 21.12V2.88C84 1.2864 85.3017 0 86.9143 0H115.086C116.698 0 118 1.2864 118 2.88V21.12C118 22.7136 116.698 24 115.086 24Z" fill="#F8F8F8"/>
        <path fill-rule="evenodd" clip-rule="evenodd" d="M105.226 17.9667L104.622 17.1667V17.9667H102.509V16.5667C102.207 16.6667 101.905 16.7667 101.603 16.7667H100.899V17.9667H97.6788L96.9744 17.1667L96.3707 17.9667H91.0375V12.9667H96.3707L96.9744 13.7667L97.5782 12.9667H117.099V2.70019C117.099 1.59562 116.204 0.700195 115.099 0.700195H86.8994C85.7948 0.700195 84.8994 1.59563 84.8994 2.7002V9.16667L86.1069 6.36674H88.22L88.9244 7.96667V6.36674H91.5407L91.9432 7.4667L92.3457 6.36674H104.018V6.96667C104.421 6.56667 105.024 6.36674 105.729 6.36674H109.452L110.156 7.96667V6.36674H112.37L112.974 7.2667V6.36674H115.188V11.3667H112.974L112.37 10.4667V11.3667H109.15L108.848 10.5667H107.943L107.641 11.3667H105.628C105.024 11.3667 104.421 11.1667 104.018 10.8667V11.3667H100.798L99.9932 10.5667V11.3667H87.9182L87.6163 10.5667H86.7107L86.4088 11.3667H84.8994V21.3C84.8994 22.4046 85.7948 23.3 86.8994 23.3H115.099C116.204 23.3 117.099 22.4046 117.099 21.3V17.5667C116.798 17.7667 116.395 17.9667 115.892 17.9667H105.226ZM116.696 14.3664L117.098 13.5664H115.086C114.281 13.5664 113.778 14.0664 113.778 14.7664C113.778 15.4664 114.281 15.8664 114.985 15.8664H115.891C116.092 15.8664 116.193 15.9664 116.193 16.1664C116.193 16.3664 116.092 16.4664 115.891 16.4664H113.878V17.2664H115.79C116.595 17.2664 117.098 16.7664 117.098 16.0664C117.098 15.3664 116.696 14.9664 115.891 14.9664H115.086C114.885 14.9664 114.784 14.8664 114.784 14.6664C114.784 14.4664 114.885 14.3664 115.086 14.3664H116.696ZM111.262 14.7664C111.262 14.5664 111.363 14.4664 111.564 14.4664H113.174L113.576 13.6664H111.564C110.759 13.6664 110.256 14.1664 110.256 14.8664C110.256 15.5664 110.759 15.9664 111.463 15.9664H112.369C112.57 15.9664 112.671 16.0664 112.671 16.2664C112.671 16.4664 112.57 16.5664 112.369 16.5664H110.356V17.3664H112.268C113.073 17.3664 113.576 16.8664 113.576 16.1664C113.576 15.4664 113.174 15.0664 112.369 15.0664H111.463C111.363 15.0664 111.262 14.8664 111.262 14.7664ZM106.835 17.3664H109.954V16.5664H107.841V15.9664H109.954V15.1664H107.841V14.5664H109.954V13.7664H106.835V17.3664ZM106.734 17.3664L105.526 15.9664C106.13 15.8664 106.533 15.3664 106.533 14.7664C106.533 14.0664 106.03 13.5664 105.225 13.5664H103.111V17.3664H104.118V16.0664H104.52L105.627 17.3664H106.734ZM105.023 15.1664H104.017V14.3664H105.023C105.325 14.3664 105.426 14.5664 105.426 14.7664C105.526 14.9664 105.325 15.1664 105.023 15.1664ZM102.608 14.8664C102.608 14.0664 102.105 13.5664 101.3 13.5664H99.1871V17.3664H100.193V16.1664H101.3C102.105 16.0664 102.608 15.5664 102.608 14.8664ZM101.703 14.8664C101.703 15.0664 101.501 15.2664 101.3 15.2664H100.193V14.3664H101.3C101.501 14.3664 101.703 14.5664 101.703 14.8664ZM99.0864 17.3664L97.5771 15.4664L99.0864 13.5664H97.8789L96.9733 14.7664L96.0677 13.5664H94.9608L96.4702 15.4664L94.9608 17.3664H96.1683L97.0739 16.1664L97.9796 17.3664H99.0864ZM91.7408 17.3664H94.8602V16.5664H92.7471V15.9664H94.8602V15.1664H92.7471V14.5664H94.8602V13.7664H91.7408V17.3664ZM114.282 6.96582V10.7658H113.175L111.565 8.36582V10.7658H110.559V6.96582H111.766L113.276 9.26585V6.96582H114.282ZM110.458 10.7658H109.351L109.049 9.96582H107.339L107.037 10.7658H106.031L107.641 6.96582H108.848L110.458 10.7658ZM107.741 9.16582H108.748L108.244 7.86586L107.741 9.16582ZM106.634 7.86586H105.628C105.024 7.86586 104.723 8.26586 104.723 8.96582V9.06586C104.723 9.66586 105.125 10.0659 105.729 10.0659H106.031L105.628 10.8659H105.528C104.421 10.8659 103.716 10.1658 103.716 8.96582V8.86586C103.716 7.76582 104.32 6.96582 105.528 6.96582H106.634V7.86586ZM103.314 10.7658H102.308V8.96582V7.06586H103.314V8.96582V10.7658ZM100.899 9.36582L102.106 10.7658H100.999L99.8925 9.46586H99.49V10.7658H98.4838V6.96582H100.597C101.402 6.96582 101.905 7.46586 101.905 8.16582C101.905 8.76582 101.503 9.26586 100.899 9.36582ZM99.49 8.56582H100.496C100.798 8.56582 100.899 8.46586 100.899 8.16582C100.899 7.96582 100.798 7.76582 100.496 7.76582H99.49V8.56582ZM97.9807 10.7658H94.8613V7.16582H97.9807V7.96582H95.8675V8.56582H97.9807V9.36582H95.8675V9.96582H97.9807V10.7658ZM94.1569 10.7658H93.2513V7.96582L92.245 10.7658H91.44L90.4338 7.96582V10.7658H89.5282V6.96582H91.0375L91.8425 9.36582L92.6475 6.96582H94.1569V10.7658ZM89.4275 10.7658H88.3207L87.9182 9.96582H86.2075L85.9057 10.7658H84.8994L86.6101 6.96582H87.8176L89.4275 10.7658ZM86.6101 9.16582H87.6163L87.1132 7.86586L86.6101 9.16582Z" fill="#006FCF"/>
        <path d="M115.086 0.96C116.154 0.96 117.029 1.824 117.029 2.88V21.12C117.029 22.176 116.154 23.04 115.086 23.04H86.9143C85.8457 23.04 84.9714 22.176 84.9714 21.12V2.88C84.9714 1.824 85.8457 0.96 86.9143 0.96H115.086ZM115.086 0H86.9143C85.3017 0 84 1.2864 84 2.88V21.12C84 22.7136 85.3017 24 86.9143 24H115.086C116.698 24 118 22.7136 118 21.12V2.88C118 1.2864 116.698 0 115.086 0Z" fill="#E7E7E7"/>
    </g>
    <g clip-path="url(#clip3_3062_83924)">
        <path d="M157.286 24H129.114C127.502 24 126.2 22.7136 126.2 21.12V2.88C126.2 1.2864 127.502 0 129.114 0H157.286C158.898 0 160.2 1.2864 160.2 2.88V21.12C160.2 22.7136 158.898 24 157.286 24Z" fill="#F8F8F8"/>
        <path d="M157.286 0.96C158.354 0.96 159.229 1.824 159.229 2.88V21.12C159.229 22.176 158.354 23.04 157.286 23.04H129.114C128.046 23.04 127.172 22.176 127.172 21.12V2.88C127.172 1.824 128.046 0.96 129.114 0.96H157.286ZM157.286 0H129.114C127.502 0 126.2 1.2864 126.2 2.88V21.12C126.2 22.7136 127.502 24 129.114 24H157.286C158.898 24 160.2 22.7136 160.2 21.12V2.88C160.2 1.2864 158.898 0 157.286 0Z" fill="#E7E7E7"/>
        <path d="M152.708 12.0049C152.708 15.3201 150.018 18.0049 146.708 18.0049C143.398 18.0049 140.708 15.3202 140.708 12.0049C140.708 8.68959 143.398 6.00488 146.708 6.00488C150.018 6.00488 152.708 8.68959 152.708 12.0049Z" fill="#1694D2"/>
        <path d="M145.322 12.0049C145.322 15.3201 142.632 18.0049 139.322 18.0049C136.012 18.0049 133.322 15.3202 133.322 12.0049C133.322 8.68966 136.012 6.00488 139.322 6.00488C142.632 6.00488 145.322 8.68956 145.322 12.0048V12.0049Z" fill="#E31E26"/>
        <path d="M142.994 7.27637C141.594 8.37298 140.707 10.0764 140.707 12.0015C140.707 13.9266 141.605 15.6297 142.994 16.7264C144.394 15.6297 145.28 13.9264 145.28 12.0013C145.28 10.0762 144.394 8.37298 142.994 7.27637Z" fill="#6A69AF"/>
    </g>
    <defs>
        <clipPath id="clip0_3062_83924">
            <rect width="34" height="24" fill="white"/>
        </clipPath>
        <clipPath id="clip1_3062_83924">
            <rect width="34" height="24" fill="white" transform="translate(42)"/>
        </clipPath>
        <clipPath id="clip2_3062_83924">
            <rect width="34" height="24" fill="white" transform="translate(84)"/>
        </clipPath>
        <clipPath id="clip3_3062_83924">
            <rect width="34" height="24" fill="white" transform="translate(126)"/>
        </clipPath>
    </defs>
</svg>
