<svg width="122" height="24" viewBox="0 0 122 24" fill="none" xmlns="http://www.w3.org/2000/svg">
<g clip-path="url(#clip0_4419_179220)">
<path d="M30.72 24H2.88C1.2864 24 0 22.7136 0 21.12V2.88C0 1.2864 1.2864 0 2.88 0H30.72C32.3136 0 33.6 1.2864 33.6 2.88V21.12C33.6 22.7136 32.3136 24 30.72 24Z" fill="#F8F8F8"/>
<path d="M30.72 0.96C31.776 0.96 32.64 1.824 32.64 2.88V21.12C32.64 22.176 31.776 23.04 30.72 23.04H2.88C1.824 23.04 0.96 22.176 0.96 21.12V2.88C0.96 1.824 1.824 0.96 2.88 0.96H30.72ZM30.72 0H2.88C1.2864 0 0 1.2864 0 2.88V21.12C0 22.7136 1.2864 24 2.88 24H30.72C32.3136 24 33.6 22.7136 33.6 21.12V2.88C33.6 1.2864 32.3136 0 30.72 0Z" fill="#E7E7E7"/>
<path d="M14.1025 7.88157L12.3361 16.08H14.4673L16.2337 7.88157H14.1025ZM27.8305 7.88157H26.0161C25.6129 7.88157 25.2577 8.12157 25.1137 8.47677L21.9073 16.08H24.1441L24.5857 14.8512H27.3217L27.5809 16.08H29.5585L27.8305 7.88157ZM25.2097 13.1712L26.3233 10.0992L26.9665 13.1712H25.2097ZM10.9441 7.88157L8.72653 13.4592L7.82413 8.71677C7.70893 8.17917 7.30573 7.87197 6.83533 7.87197H3.22573L3.17773 8.11197C3.92653 8.27517 4.76173 8.53437 5.28013 8.80317C5.58733 8.98557 5.68333 9.12957 5.77933 9.53277L7.47853 16.0896H9.72494L13.1905 7.89117H10.9441V7.88157ZM19.0369 10.1664C19.0369 9.87837 19.3249 9.55197 19.9393 9.48477C20.2465 9.45597 21.0913 9.41757 22.0417 9.85917L22.4161 8.11197C21.8977 7.92957 21.2353 7.75677 20.4289 7.75677C18.3265 7.75677 16.8385 8.87037 16.8193 10.4736C16.8001 11.6544 17.8849 12.3168 18.6817 12.7104C19.5073 13.1136 19.7953 13.3728 19.7857 13.728C19.7857 14.2752 19.1233 14.5248 18.5089 14.5344C17.4433 14.5536 16.8097 14.2464 16.3201 14.016L15.9361 15.8112C16.4353 16.0416 17.3569 16.2336 18.3169 16.2528C20.5633 16.2528 22.0225 15.1488 22.0417 13.4496C22.0225 11.2512 19.0177 11.1168 19.0369 10.1664Z" fill="#0F2496"/>
</g>
<g clip-path="url(#clip1_4419_179220)">
<path d="M72.3201 24H44.4801C42.8865 24 41.6001 22.7136 41.6001 21.12V2.88C41.6001 1.2864 42.8865 0 44.4801 0H72.3201C73.9137 0 75.2001 1.2864 75.2001 2.88V21.12C75.2001 22.7136 73.9137 24 72.3201 24Z" fill="#F8F8F8"/>
<path d="M72.3201 0.96C73.3761 0.96 74.2401 1.824 74.2401 2.88V21.12C74.2401 22.176 73.3761 23.04 72.3201 23.04H44.4801C43.4241 23.04 42.5601 22.176 42.5601 21.12V2.88C42.5601 1.824 43.4241 0.96 44.4801 0.96H72.3201ZM72.3201 0H44.4801C42.8865 0 41.6001 1.2864 41.6001 2.88V21.12C41.6001 22.7136 42.8865 24 44.4801 24H72.3201C73.9137 24 75.2001 22.7136 75.2001 21.12V2.88C75.2001 1.2864 73.9137 0 72.3201 0Z" fill="#E7E7E7"/>
<path d="M68.0774 12.0015C68.0774 15.3148 65.3942 17.9981 62.0923 17.9981C58.7905 17.9981 56.1074 15.3149 56.1074 12.0015C56.1074 8.68802 58.7908 6.00482 62.0923 6.00482C65.3937 6.00482 68.0774 8.68802 68.0774 12.0015Z" fill="#F79F1A"/>
<path d="M60.6922 12.0014C60.6922 15.3148 58.0088 17.9981 54.7072 17.9981C51.4056 17.9981 48.7222 15.3149 48.7222 12.0014C48.7222 8.688 51.4054 6.0047 54.7072 6.0047C58.009 6.0047 60.6922 8.6879 60.6922 12.0013V12.0014Z" fill="#EA001B"/>
<path d="M58.3941 7.27643C56.9941 8.37304 56.1074 10.0765 56.1074 12.0015C56.1074 13.9266 57.0058 15.6298 58.3941 16.7265C59.7941 15.6298 60.6809 13.9264 60.6809 12.0014C60.6809 10.0763 59.7941 8.37304 58.3941 7.27643Z" fill="#FF5F01"/>
</g>
<g clip-path="url(#clip2_4419_179220)">
<path d="M90.7065 0H100.273C101.609 0 102.439 1.08855 102.128 2.4285L97.6737 21.5513C97.3594 22.8866 96.0222 23.976 94.686 23.976H85.12C83.7865 23.976 82.954 22.8866 83.2656 21.5513L87.7215 2.4285C88.033 1.08855 89.3694 0 90.7065 0Z" fill="#E21836"/>
<path d="M99.4772 0H110.479C111.814 0 111.212 1.08855 110.898 2.4285L106.444 21.5513C106.132 22.8866 106.229 23.976 104.891 23.976H93.89C92.552 23.976 91.724 22.8866 92.0383 21.5513L96.4913 2.4285C96.8075 1.08855 98.1412 0 99.4772 0Z" fill="#00447C"/>
<path d="M110.042 0H119.609C120.946 0 121.777 1.08855 121.463 2.4285L117.009 21.5513C116.695 22.8866 115.357 23.976 114.02 23.976H104.458C103.12 23.976 102.29 22.8866 102.603 21.5513L107.057 2.4285C107.369 1.08855 108.704 0 110.042 0Z" fill="#007B84"/>
<path d="M93.205 6.12842C92.2213 6.13847 91.9308 6.12842 91.8379 6.10652C91.8022 6.27602 91.1383 9.33842 91.1365 9.34097C90.9936 9.96046 90.8896 10.4022 90.5362 10.6874C90.3358 10.8531 90.1017 10.9332 89.8302 10.9332C89.394 10.9332 89.1397 10.7165 89.0971 10.3056L89.0889 10.1646C89.0889 10.1646 89.2218 9.33467 89.2218 9.33002C89.2218 9.33002 89.9185 6.53927 90.0433 6.17042C90.0499 6.14942 90.0517 6.13847 90.0534 6.12842C88.6972 6.14042 88.4568 6.12842 88.4403 6.10652C88.4311 6.13652 88.3975 6.30962 88.3975 6.30962L87.6861 9.45512L87.625 9.72181L87.5068 10.5944C87.5068 10.8531 87.5577 11.0645 87.6588 11.2431C87.9829 11.8095 88.9075 11.8944 89.4306 11.8944C90.1044 11.8944 90.7366 11.7512 91.1638 11.4897C91.9053 11.0517 92.0994 10.3668 92.2723 9.75812L92.3526 9.44597C92.3526 9.44597 93.0703 6.54752 93.1923 6.17042C93.1968 6.14942 93.1987 6.13847 93.205 6.12842ZM95.647 8.46662C95.4741 8.46662 95.158 8.50862 94.8739 8.64782C94.7709 8.70077 94.6734 8.76182 94.5705 8.82272L94.6633 8.48762L94.6125 8.43122C94.0102 8.55317 93.8754 8.56952 93.319 8.64782L93.2725 8.67887C93.2079 9.21437 93.1504 9.61712 92.911 10.67C92.8193 11.0594 92.7257 11.4484 92.6302 11.837L92.6557 11.886C93.226 11.856 93.399 11.856 93.8946 11.8641L93.9346 11.8206C93.9976 11.4981 94.0057 11.4225 94.1452 10.7693C94.2108 10.4597 94.3474 9.77927 94.4148 9.53702C94.5385 9.47957 94.6608 9.42317 94.7773 9.42317C95.0551 9.42317 95.0212 9.66542 95.0106 9.76202C94.9986 9.92402 94.8975 10.4534 94.7937 10.9079L94.7244 11.2011C94.6762 11.4179 94.6233 11.6283 94.575 11.8431L94.596 11.886C95.1579 11.856 95.3293 11.856 95.8092 11.8641L95.8656 11.8206C95.9524 11.3169 95.9778 11.1821 96.1317 10.4487L96.2091 10.1118C96.3595 9.45227 96.4351 9.11792 96.3213 8.84552C96.201 8.54027 95.9122 8.46662 95.6472 8.46662H95.647ZM98.3752 9.15707C98.0764 9.21452 97.8859 9.25262 97.6966 9.27737C97.509 9.30737 97.3258 9.33482 97.0372 9.37487L97.0143 9.39557L96.9933 9.41207C96.9633 9.62717 96.9423 9.81301 96.9024 10.0316C96.8686 10.2575 96.8166 10.5143 96.732 10.8831C96.6664 11.1654 96.6327 11.2638 96.5953 11.3631C96.5589 11.4626 96.5188 11.5592 96.4452 11.8368L96.4624 11.8625L96.4768 11.886C96.7467 11.8733 96.9232 11.8641 97.1046 11.8625C97.2858 11.856 97.4736 11.8625 97.764 11.864L97.7895 11.8434L97.8168 11.8205C97.8588 11.57 97.8649 11.5026 97.8906 11.3805C97.9161 11.2494 97.9599 11.0681 98.0674 10.5834C98.1183 10.3559 98.1748 10.1289 98.2276 9.89671C98.2824 9.66541 98.3397 9.43772 98.3943 9.21002L98.3862 9.18257L98.3752 9.15707ZM98.3815 8.22617C98.11 8.06597 97.6338 8.11682 97.3131 8.33807C96.9934 8.55497 96.957 8.86277 97.2276 9.02507C97.4943 9.18077 97.9725 9.13442 98.2903 8.91122C98.6094 8.68967 98.6493 8.38472 98.3815 8.22617ZM100.023 11.9363C100.572 11.9363 101.135 11.7848 101.559 11.3358C101.885 10.9716 102.034 10.4297 102.086 10.2065C102.255 9.46681 102.123 9.12152 101.959 8.91122C101.708 8.59052 101.265 8.48762 100.806 8.48762C100.53 8.48762 99.8727 8.51492 99.3589 8.98862C98.9899 9.33017 98.8195 9.79381 98.7168 10.2381C98.613 10.6911 98.4936 11.5062 99.2433 11.8097C99.4746 11.909 99.808 11.9363 100.023 11.9363ZM99.9801 10.272C100.107 9.71192 100.256 9.24182 100.638 9.24182C100.937 9.24182 100.958 9.59162 100.825 10.1535C100.802 10.2783 100.693 10.7421 100.545 10.9395C100.442 11.0853 100.32 11.1737 100.185 11.1737C100.145 11.1737 99.9064 11.1737 99.9027 10.8195C99.9009 10.6446 99.9366 10.466 99.9801 10.272ZM103.459 11.8643L103.502 11.8206C103.563 11.4981 103.573 11.4224 103.707 10.7694C103.775 10.4597 103.914 9.77942 103.98 9.53702C104.104 9.47942 104.224 9.42302 104.344 9.42302C104.62 9.42302 104.586 9.66527 104.575 9.76187C104.565 9.92417 104.464 10.4532 104.359 10.9077L104.293 11.201C104.243 11.4179 104.188 11.6282 104.14 11.8433L104.161 11.8862C104.725 11.8562 104.89 11.8562 105.372 11.8643L105.431 11.8206C105.515 11.3166 105.538 11.1819 105.697 10.4487L105.772 10.1117C105.924 9.45212 106 9.11807 105.888 8.84567C105.764 8.54042 105.474 8.46677 105.212 8.46677C105.039 8.46677 104.721 8.50847 104.439 8.64797C104.338 8.70077 104.237 8.76167 104.137 8.82287L104.224 8.48777L104.177 8.43107C103.575 8.55317 103.438 8.56952 102.882 8.64797L102.839 8.67887C102.772 9.21452 102.717 9.61697 102.478 10.6701C102.386 11.0595 102.293 11.4484 102.197 11.837L102.223 11.8862C102.794 11.8562 102.964 11.8562 103.459 11.8643ZM107.601 11.886C107.637 11.7129 107.847 10.6875 107.849 10.6875C107.849 10.6875 108.028 9.93497 108.04 9.90767C108.04 9.90767 108.096 9.82937 108.152 9.79832H108.235C109.019 9.79832 109.903 9.79832 110.596 9.28832C111.068 8.93852 111.391 8.42207 111.534 7.79432C111.572 7.64042 111.599 7.45742 111.599 7.27442C111.599 7.03397 111.551 6.79607 111.412 6.61022C111.058 6.11567 110.354 6.10652 109.541 6.10277L109.141 6.10652C108.101 6.11942 107.683 6.11567 107.512 6.09467C107.498 6.17042 107.47 6.30527 107.47 6.30527C107.47 6.30527 107.098 8.03222 107.098 8.03492L106.164 11.8797C107.072 11.8688 107.445 11.8688 107.601 11.886ZM108.292 8.81822C108.292 8.81822 108.688 7.09472 108.686 7.10132L108.699 7.01282L108.705 6.94562L108.863 6.96182C108.863 6.96182 109.68 7.03202 109.699 7.03382C110.022 7.15862 110.154 7.48022 110.062 7.89992C109.977 8.28362 109.728 8.60612 109.408 8.76182C109.145 8.89382 108.823 8.90477 108.49 8.90477H108.276L108.292 8.81822ZM110.758 10.304C110.654 10.7502 110.533 11.5655 111.279 11.856C111.517 11.9571 111.73 11.9873 111.947 11.9763C112.176 11.964 112.388 11.8493 112.584 11.6841L112.531 11.888L112.565 11.9315C113.101 11.909 113.268 11.909 113.849 11.9135L113.902 11.8733C113.987 11.3742 114.067 10.8897 114.287 9.93497C114.395 9.47777 114.502 9.02492 114.612 8.56952L114.595 8.51942C113.995 8.63057 113.835 8.65442 113.257 8.73617L113.213 8.77187C113.207 8.81837 113.201 8.86292 113.196 8.90747C113.106 8.76242 112.976 8.63852 112.775 8.56142C112.518 8.46032 111.915 8.59052 111.397 9.06242C111.033 9.39947 110.858 9.86117 110.758 10.304ZM112.019 10.3313C112.148 9.78107 112.295 9.31577 112.678 9.31577C112.919 9.31577 113.047 9.53882 113.021 9.91936C112.999 10.0223 112.976 10.125 112.952 10.2275C112.914 10.391 112.872 10.553 112.832 10.7153C112.791 10.8263 112.743 10.931 112.69 11.0007C112.592 11.1402 112.358 11.2266 112.223 11.2266C112.185 11.2266 111.949 11.2266 111.941 10.8786C111.939 10.7055 111.975 10.527 112.019 10.3311V10.3313ZM118.602 8.51492L118.555 8.46197C117.962 8.58227 117.854 8.60147 117.309 8.67512L117.268 8.71517C117.267 8.72177 117.265 8.73167 117.262 8.74082L117.26 8.73182C116.854 9.66902 116.866 9.46681 116.535 10.2045C116.533 10.1709 116.533 10.1501 116.532 10.1144L116.449 8.51492L116.397 8.46197C115.775 8.58227 115.76 8.60147 115.185 8.67512L115.141 8.71517C115.134 8.73437 115.134 8.75537 115.131 8.77817L115.134 8.78642C115.206 9.15332 115.189 9.07141 115.261 9.65071C115.294 9.93496 115.339 10.2209 115.373 10.5017C115.429 10.9715 115.461 11.2028 115.53 11.9199C115.143 12.5601 115.051 12.8025 114.677 13.3644L114.68 13.37L114.417 13.7861C114.387 13.8299 114.359 13.8599 114.321 13.8728C114.279 13.8935 114.224 13.8972 114.149 13.8972H114.003L113.786 14.6178L114.529 14.6306C114.966 14.6288 115.24 14.4248 115.387 14.1506L115.855 13.3497H115.847L115.897 13.2933C116.211 12.6167 118.602 8.51492 118.602 8.51492ZM110.758 17.9781H110.443L111.61 14.1186H111.997L112.12 13.7211L112.132 14.1632C112.117 14.4365 112.332 14.6787 112.897 14.6387H113.55L113.775 13.8956H113.529C113.388 13.8956 113.322 13.8599 113.331 13.7834L113.319 13.3335H112.109V13.3359C111.718 13.344 110.55 13.3734 110.314 13.4364C110.028 13.5099 109.726 13.727 109.726 13.727L109.845 13.3289H108.714L108.478 14.1186L107.295 18.0371H107.066L106.841 18.7749H109.094L109.019 19.0209H110.129L110.203 18.7749H110.514L110.758 17.9781ZM109.834 14.9028C109.653 14.9529 109.316 15.105 109.316 15.105L109.615 14.1186H110.514L110.298 14.8373C110.298 14.8373 110.02 14.8538 109.834 14.9028H109.834ZM109.851 16.3119C109.851 16.3119 109.569 16.3475 109.383 16.3893C109.2 16.4448 108.857 16.6197 108.857 16.6197L109.166 15.5933H110.07L109.851 16.3119ZM109.347 17.9871H108.446L108.707 17.1209H109.606L109.347 17.9871ZM111.519 15.5933H112.819L112.632 16.1982H111.315L111.117 16.8594H112.27L111.397 18.0881C111.336 18.1784 111.281 18.2103 111.22 18.2357C111.159 18.2667 111.079 18.3032 110.986 18.3032H110.667L110.447 19.0274H111.283C111.718 19.0274 111.975 18.8297 112.164 18.5702L112.762 17.7512L112.891 18.5828C112.918 18.7385 113.03 18.8297 113.106 18.8651C113.19 18.9071 113.276 18.9791 113.398 18.9899C113.529 18.9954 113.624 18.9999 113.687 18.9999H114.098L114.345 18.1893H114.183C114.09 18.1893 113.929 18.1737 113.902 18.1446C113.875 18.1091 113.875 18.0546 113.86 17.9715L113.73 17.1381H113.196L113.43 16.8594H114.744L114.947 16.1982H113.73L113.919 15.5933H115.132L115.357 14.8473H111.74L111.519 15.5933ZM100.541 18.1556L100.845 17.1464H102.091L102.319 16.3958H101.071L101.262 15.7746H102.481L102.707 15.0477H99.6558L99.4345 15.7746H100.128L99.9429 16.3956H99.2478L99.0174 17.1591H99.7104L99.306 18.4944C99.2515 18.6711 99.3316 18.7385 99.3825 18.8207C99.4345 18.9006 99.4872 18.9536 99.6057 18.9836C99.7279 19.0109 99.8116 19.0272 99.9253 19.0272H101.331L101.581 18.1956L100.958 18.2813C100.838 18.2813 100.505 18.2669 100.541 18.1556ZM100.684 13.3244L100.368 13.8954C100.301 14.0201 100.24 14.0976 100.185 14.1332C100.137 14.1632 100.041 14.1759 99.9025 14.1759H99.7377L99.5173 14.9064H100.065C100.328 14.9064 100.53 14.81 100.627 14.7617C100.731 14.7062 100.758 14.7378 100.838 14.6604L101.023 14.5002H102.733L102.96 13.7397H101.708L101.927 13.3242H100.684V13.3244ZM103.208 18.1703C103.179 18.1283 103.2 18.0543 103.245 17.9004L103.712 16.3538H105.374C105.617 16.3503 105.791 16.3475 105.905 16.3394C106.027 16.3265 106.16 16.2828 106.305 16.2045C106.455 16.1225 106.531 16.0359 106.596 15.9366C106.668 15.8376 106.783 15.6206 106.883 15.2862L107.47 13.3289L105.745 13.3389C105.745 13.3389 105.214 13.4172 104.98 13.5039C104.744 13.6004 104.407 13.8699 104.407 13.8699L104.563 13.3334H103.497L102.005 18.2813C101.952 18.4733 101.917 18.6128 101.908 18.6966C101.906 18.7868 102.022 18.8762 102.098 18.9435C102.187 19.0109 102.319 18.9999 102.446 19.0109C102.579 19.0209 102.768 19.0272 103.03 19.0272H103.849L104.1 18.1784L103.367 18.2477C103.288 18.2477 103.232 18.2057 103.208 18.1703ZM104.013 15.3092H105.759L105.648 15.657C105.633 15.6651 105.596 15.6398 105.418 15.6608H103.906L104.013 15.3092ZM104.363 14.1422H106.124L105.997 14.5613C105.997 14.5613 105.168 14.5532 105.035 14.5776C104.45 14.6789 104.108 14.9913 104.108 14.9913L104.363 14.1423V14.1422ZM105.688 16.8221C105.673 16.8741 105.65 16.9058 105.618 16.9296C105.583 16.9524 105.525 16.9605 105.44 16.9605H105.191L105.206 16.5369H104.171L104.129 18.6083C104.127 18.7577 104.142 18.8442 104.251 18.9135C104.361 18.9999 104.698 19.011 105.151 19.011H105.8L106.034 18.2355L105.469 18.2666L105.281 18.2775C105.256 18.2666 105.231 18.2565 105.204 18.2294C105.18 18.2058 105.14 18.2202 105.147 18.0708L105.151 17.5398L105.743 17.5154C106.063 17.5154 106.2 17.4113 106.316 17.3123C106.427 17.2173 106.464 17.1083 106.506 16.9605L106.605 16.4904H105.791L105.688 16.8219L105.688 16.8221Z" fill="#FEFEFE"/>
</g>
<defs>
<clipPath id="clip0_4419_179220">
<rect width="33.6" height="24" fill="white"/>
</clipPath>
<clipPath id="clip1_4419_179220">
<rect width="33.6" height="24" fill="white" transform="translate(41.6001)"/>
</clipPath>
<clipPath id="clip2_4419_179220">
<rect width="38.4" height="24" fill="white" transform="translate(83.2002)"/>
</clipPath>
</defs>
</svg>
